<?xml version="1.0" encoding="utf-8" standalone="no"?>
<!DOCTYPE svg PUBLIC "-//W3C//DTD SVG 1.1//EN"
  "http://www.w3.org/Graphics/SVG/1.1/DTD/svg11.dtd">
<svg xmlns:xlink="http://www.w3.org/1999/xlink" width="864pt" height="432pt" viewBox="0 0 864 432" xmlns="http://www.w3.org/2000/svg" version="1.1">
 <metadata>
  <rdf:RDF xmlns:dc="http://purl.org/dc/elements/1.1/" xmlns:cc="http://creativecommons.org/ns#" xmlns:rdf="http://www.w3.org/1999/02/22-rdf-syntax-ns#">
   <cc:Work>
    <dc:type rdf:resource="http://purl.org/dc/dcmitype/StillImage"/>
    <dc:date>2023-09-05T09:48:27.136430</dc:date>
    <dc:format>image/svg+xml</dc:format>
    <dc:creator>
     <cc:Agent>
      <dc:title>Matplotlib v3.5.1, https://matplotlib.org/</dc:title>
     </cc:Agent>
    </dc:creator>
   </cc:Work>
  </rdf:RDF>
 </metadata>
 <defs>
  <style type="text/css">*{stroke-linejoin: round; stroke-linecap: butt}</style>
 </defs>
 <g id="figure_1">
  <g id="patch_1">
   <path d="M 0 432 
L 864 432 
L 864 0 
L 0 0 
z
" style="fill: #ffffff"/>
  </g>
  <g id="axes_1">
   <g id="patch_2">
    <path d="M 108 345.6 
L 777.6 345.6 
L 777.6 51.84 
L 108 51.84 
z
" style="fill: #ffffff"/>
   </g>
   <g id="patch_3">
    <path d="M 138.436364 345.6 
L 153.912481 345.6 
L 153.912481 342.466715 
L 138.436364 342.466715 
z
" clip-path="url(#p90a91d0af3)" style="fill: #1f77b4"/>
   </g>
   <g id="patch_4">
    <path d="M 241.610478 345.6 
L 257.086595 345.6 
L 257.086595 326.967772 
L 241.610478 326.967772 
z
" clip-path="url(#p90a91d0af3)" style="fill: #1f77b4"/>
   </g>
   <g id="patch_5">
    <path d="M 344.784592 345.6 
L 360.260709 345.6 
L 360.260709 343.963967 
L 344.784592 343.963967 
z
" clip-path="url(#p90a91d0af3)" style="fill: #1f77b4"/>
   </g>
   <g id="patch_6">
    <path d="M 447.958706 345.6 
L 463.434823 345.6 
L 463.434823 309.522278 
L 447.958706 309.522278 
z
" clip-path="url(#p90a91d0af3)" style="fill: #1f77b4"/>
   </g>
   <g id="patch_7">
    <path d="M 551.13282 345.6 
L 566.608937 345.6 
L 566.608937 233.841408 
L 551.13282 233.841408 
z
" clip-path="url(#p90a91d0af3)" style="fill: #1f77b4"/>
   </g>
   <g id="patch_8">
    <path d="M 654.306934 345.6 
L 669.783051 345.6 
L 669.783051 324.602453 
L 654.306934 324.602453 
z
" clip-path="url(#p90a91d0af3)" style="fill: #1f77b4"/>
   </g>
   <g id="patch_9">
    <path d="M 153.912481 345.6 
L 169.388598 345.6 
L 169.388598 344.254194 
L 153.912481 344.254194 
z
" clip-path="url(#p90a91d0af3)" style="fill: #ff7f0e"/>
   </g>
   <g id="patch_10">
    <path d="M 257.086595 345.6 
L 272.562712 345.6 
L 272.562712 289.106199 
L 257.086595 289.106199 
z
" clip-path="url(#p90a91d0af3)" style="fill: #ff7f0e"/>
   </g>
   <g id="patch_11">
    <path d="M 360.260709 345.6 
L 375.736826 345.6 
L 375.736826 344.40991 
L 360.260709 344.40991 
z
" clip-path="url(#p90a91d0af3)" style="fill: #ff7f0e"/>
   </g>
   <g id="patch_12">
    <path d="M 463.434823 345.6 
L 478.91094 345.6 
L 478.91094 336.135547 
L 463.434823 336.135547 
z
" clip-path="url(#p90a91d0af3)" style="fill: #ff7f0e"/>
   </g>
   <g id="patch_13">
    <path d="M 566.608937 345.6 
L 582.085054 345.6 
L 582.085054 244.683858 
L 566.608937 244.683858 
z
" clip-path="url(#p90a91d0af3)" style="fill: #ff7f0e"/>
   </g>
   <g id="patch_14">
    <path d="M 669.783051 345.6 
L 685.259168 345.6 
L 685.259168 338.327185 
L 669.783051 338.327185 
z
" clip-path="url(#p90a91d0af3)" style="fill: #ff7f0e"/>
   </g>
   <g id="patch_15">
    <path d="M 169.388598 345.6 
L 184.864715 345.6 
L 184.864715 343.354575 
L 169.388598 343.354575 
z
" clip-path="url(#p90a91d0af3)" style="fill: #2ca02c"/>
   </g>
   <g id="patch_16">
    <path d="M 272.562712 345.6 
L 288.038829 345.6 
L 288.038829 323.236655 
L 272.562712 323.236655 
z
" clip-path="url(#p90a91d0af3)" style="fill: #2ca02c"/>
   </g>
   <g id="patch_17">
    <path d="M 375.736826 345.6 
L 391.212943 345.6 
L 391.212943 339.61699 
L 375.736826 339.61699 
z
" clip-path="url(#p90a91d0af3)" style="fill: #2ca02c"/>
   </g>
   <g id="patch_18">
    <path d="M 478.91094 345.6 
L 494.387057 345.6 
L 494.387057 342.679003 
L 478.91094 342.679003 
z
" clip-path="url(#p90a91d0af3)" style="fill: #2ca02c"/>
   </g>
   <g id="patch_19">
    <path d="M 582.085054 345.6 
L 597.561171 345.6 
L 597.561171 65.828571 
L 582.085054 65.828571 
z
" clip-path="url(#p90a91d0af3)" style="fill: #2ca02c"/>
   </g>
   <g id="patch_20">
    <path d="M 685.259168 345.6 
L 700.735285 345.6 
L 700.735285 334.216737 
L 685.259168 334.216737 
z
" clip-path="url(#p90a91d0af3)" style="fill: #2ca02c"/>
   </g>
   <g id="patch_21">
    <path d="M 184.864715 345.6 
L 200.340832 345.6 
L 200.340832 345.313133 
L 184.864715 345.313133 
z
" clip-path="url(#p90a91d0af3)" style="fill: #d62728"/>
   </g>
   <g id="patch_22">
    <path d="M 288.038829 345.6 
L 303.514946 345.6 
L 303.514946 293.156543 
L 288.038829 293.156543 
z
" clip-path="url(#p90a91d0af3)" style="fill: #d62728"/>
   </g>
   <g id="patch_23">
    <path d="M 391.212943 345.6 
L 406.68906 345.6 
L 406.68906 345.598966 
L 391.212943 345.598966 
z
" clip-path="url(#p90a91d0af3)" style="fill: #d62728"/>
   </g>
   <g id="patch_24">
    <path d="M 494.387057 345.6 
L 509.863174 345.6 
L 509.863174 335.162092 
L 494.387057 335.162092 
z
" clip-path="url(#p90a91d0af3)" style="fill: #d62728"/>
   </g>
   <g id="patch_25">
    <path d="M 597.561171 345.6 
L 613.037288 345.6 
L 613.037288 79.544474 
L 597.561171 79.544474 
z
" clip-path="url(#p90a91d0af3)" style="fill: #d62728"/>
   </g>
   <g id="patch_26">
    <path d="M 700.735285 345.6 
L 716.211402 345.6 
L 716.211402 345.197046 
L 700.735285 345.197046 
z
" clip-path="url(#p90a91d0af3)" style="fill: #d62728"/>
   </g>
   <g id="patch_27">
    <path d="M 200.340832 345.6 
L 215.816949 345.6 
L 215.816949 345.513853 
L 200.340832 345.513853 
z
" clip-path="url(#p90a91d0af3)" style="fill: #9467bd"/>
   </g>
   <g id="patch_28">
    <path d="M 303.514946 345.6 
L 318.991063 345.6 
L 318.991063 325.041187 
L 303.514946 325.041187 
z
" clip-path="url(#p90a91d0af3)" style="fill: #9467bd"/>
   </g>
   <g id="patch_29">
    <path d="M 406.68906 345.6 
L 422.165177 345.6 
L 422.165177 345.522156 
L 406.68906 345.522156 
z
" clip-path="url(#p90a91d0af3)" style="fill: #9467bd"/>
   </g>
   <g id="patch_30">
    <path d="M 509.863174 345.6 
L 525.339291 345.6 
L 525.339291 307.052374 
L 509.863174 307.052374 
z
" clip-path="url(#p90a91d0af3)" style="fill: #9467bd"/>
   </g>
   <g id="patch_31">
    <path d="M 613.037288 345.6 
L 628.513405 345.6 
L 628.513405 233.422292 
L 613.037288 233.422292 
z
" clip-path="url(#p90a91d0af3)" style="fill: #9467bd"/>
   </g>
   <g id="patch_32">
    <path d="M 716.211402 345.6 
L 731.687519 345.6 
L 731.687519 305.786583 
L 716.211402 305.786583 
z
" clip-path="url(#p90a91d0af3)" style="fill: #9467bd"/>
   </g>
   <g id="patch_33">
    <path d="M 215.816949 345.6 
L 231.293066 345.6 
L 231.293066 345.586106 
L 215.816949 345.586106 
z
" clip-path="url(#p90a91d0af3)" style="fill: #8c564b"/>
   </g>
   <g id="patch_34">
    <path d="M 318.991063 345.6 
L 334.46718 345.6 
L 334.46718 217.724857 
L 318.991063 217.724857 
z
" clip-path="url(#p90a91d0af3)" style="fill: #8c564b"/>
   </g>
   <g id="patch_35">
    <path d="M 422.165177 345.6 
L 437.641294 345.6 
L 437.641294 345.58406 
L 422.165177 345.58406 
z
" clip-path="url(#p90a91d0af3)" style="fill: #8c564b"/>
   </g>
   <g id="patch_36">
    <path d="M 525.339291 345.6 
L 540.815408 345.6 
L 540.815408 344.466326 
L 525.339291 344.466326 
z
" clip-path="url(#p90a91d0af3)" style="fill: #8c564b"/>
   </g>
   <g id="patch_37">
    <path d="M 628.513405 345.6 
L 643.989522 345.6 
L 643.989522 69.813965 
L 628.513405 69.813965 
z
" clip-path="url(#p90a91d0af3)" style="fill: #8c564b"/>
   </g>
   <g id="patch_38">
    <path d="M 731.687519 345.6 
L 747.163636 345.6 
L 747.163636 344.178865 
L 731.687519 344.178865 
z
" clip-path="url(#p90a91d0af3)" style="fill: #8c564b"/>
   </g>
   <g id="matplotlib.axis_1">
    <g id="xtick_1">
     <g id="line2d_1">
      <defs>
       <path id="mfb115e96a8" d="M 0 0 
L 0 3.5 
" style="stroke: #000000; stroke-width: 0.8"/>
      </defs>
      <g>
       <use xlink:href="#mfb115e96a8" x="184.864715" y="345.6" style="stroke: #000000; stroke-width: 0.8"/>
      </g>
     </g>
     <g id="text_1">
      <!-- instrument-1 -->
      <g transform="translate(152.456902 360.198437)scale(0.1 -0.1)">
       <defs>
        <path id="DejaVuSans-69" d="M 603 3500 
L 1178 3500 
L 1178 0 
L 603 0 
L 603 3500 
z
M 603 4863 
L 1178 4863 
L 1178 4134 
L 603 4134 
L 603 4863 
z
" transform="scale(0.015625)"/>
        <path id="DejaVuSans-6e" d="M 3513 2113 
L 3513 0 
L 2938 0 
L 2938 2094 
Q 2938 2591 2744 2837 
Q 2550 3084 2163 3084 
Q 1697 3084 1428 2787 
Q 1159 2491 1159 1978 
L 1159 0 
L 581 0 
L 581 3500 
L 1159 3500 
L 1159 2956 
Q 1366 3272 1645 3428 
Q 1925 3584 2291 3584 
Q 2894 3584 3203 3211 
Q 3513 2838 3513 2113 
z
" transform="scale(0.015625)"/>
        <path id="DejaVuSans-73" d="M 2834 3397 
L 2834 2853 
Q 2591 2978 2328 3040 
Q 2066 3103 1784 3103 
Q 1356 3103 1142 2972 
Q 928 2841 928 2578 
Q 928 2378 1081 2264 
Q 1234 2150 1697 2047 
L 1894 2003 
Q 2506 1872 2764 1633 
Q 3022 1394 3022 966 
Q 3022 478 2636 193 
Q 2250 -91 1575 -91 
Q 1294 -91 989 -36 
Q 684 19 347 128 
L 347 722 
Q 666 556 975 473 
Q 1284 391 1588 391 
Q 1994 391 2212 530 
Q 2431 669 2431 922 
Q 2431 1156 2273 1281 
Q 2116 1406 1581 1522 
L 1381 1569 
Q 847 1681 609 1914 
Q 372 2147 372 2553 
Q 372 3047 722 3315 
Q 1072 3584 1716 3584 
Q 2034 3584 2315 3537 
Q 2597 3491 2834 3397 
z
" transform="scale(0.015625)"/>
        <path id="DejaVuSans-74" d="M 1172 4494 
L 1172 3500 
L 2356 3500 
L 2356 3053 
L 1172 3053 
L 1172 1153 
Q 1172 725 1289 603 
Q 1406 481 1766 481 
L 2356 481 
L 2356 0 
L 1766 0 
Q 1100 0 847 248 
Q 594 497 594 1153 
L 594 3053 
L 172 3053 
L 172 3500 
L 594 3500 
L 594 4494 
L 1172 4494 
z
" transform="scale(0.015625)"/>
        <path id="DejaVuSans-72" d="M 2631 2963 
Q 2534 3019 2420 3045 
Q 2306 3072 2169 3072 
Q 1681 3072 1420 2755 
Q 1159 2438 1159 1844 
L 1159 0 
L 581 0 
L 581 3500 
L 1159 3500 
L 1159 2956 
Q 1341 3275 1631 3429 
Q 1922 3584 2338 3584 
Q 2397 3584 2469 3576 
Q 2541 3569 2628 3553 
L 2631 2963 
z
" transform="scale(0.015625)"/>
        <path id="DejaVuSans-75" d="M 544 1381 
L 544 3500 
L 1119 3500 
L 1119 1403 
Q 1119 906 1312 657 
Q 1506 409 1894 409 
Q 2359 409 2629 706 
Q 2900 1003 2900 1516 
L 2900 3500 
L 3475 3500 
L 3475 0 
L 2900 0 
L 2900 538 
Q 2691 219 2414 64 
Q 2138 -91 1772 -91 
Q 1169 -91 856 284 
Q 544 659 544 1381 
z
M 1991 3584 
L 1991 3584 
z
" transform="scale(0.015625)"/>
        <path id="DejaVuSans-6d" d="M 3328 2828 
Q 3544 3216 3844 3400 
Q 4144 3584 4550 3584 
Q 5097 3584 5394 3201 
Q 5691 2819 5691 2113 
L 5691 0 
L 5113 0 
L 5113 2094 
Q 5113 2597 4934 2840 
Q 4756 3084 4391 3084 
Q 3944 3084 3684 2787 
Q 3425 2491 3425 1978 
L 3425 0 
L 2847 0 
L 2847 2094 
Q 2847 2600 2669 2842 
Q 2491 3084 2119 3084 
Q 1678 3084 1418 2786 
Q 1159 2488 1159 1978 
L 1159 0 
L 581 0 
L 581 3500 
L 1159 3500 
L 1159 2956 
Q 1356 3278 1631 3431 
Q 1906 3584 2284 3584 
Q 2666 3584 2933 3390 
Q 3200 3197 3328 2828 
z
" transform="scale(0.015625)"/>
        <path id="DejaVuSans-65" d="M 3597 1894 
L 3597 1613 
L 953 1613 
Q 991 1019 1311 708 
Q 1631 397 2203 397 
Q 2534 397 2845 478 
Q 3156 559 3463 722 
L 3463 178 
Q 3153 47 2828 -22 
Q 2503 -91 2169 -91 
Q 1331 -91 842 396 
Q 353 884 353 1716 
Q 353 2575 817 3079 
Q 1281 3584 2069 3584 
Q 2775 3584 3186 3129 
Q 3597 2675 3597 1894 
z
M 3022 2063 
Q 3016 2534 2758 2815 
Q 2500 3097 2075 3097 
Q 1594 3097 1305 2825 
Q 1016 2553 972 2059 
L 3022 2063 
z
" transform="scale(0.015625)"/>
        <path id="DejaVuSans-2d" d="M 313 2009 
L 1997 2009 
L 1997 1497 
L 313 1497 
L 313 2009 
z
" transform="scale(0.015625)"/>
        <path id="DejaVuSans-31" d="M 794 531 
L 1825 531 
L 1825 4091 
L 703 3866 
L 703 4441 
L 1819 4666 
L 2450 4666 
L 2450 531 
L 3481 531 
L 3481 0 
L 794 0 
L 794 531 
z
" transform="scale(0.015625)"/>
       </defs>
       <use xlink:href="#DejaVuSans-69"/>
       <use xlink:href="#DejaVuSans-6e" x="27.783203"/>
       <use xlink:href="#DejaVuSans-73" x="91.162109"/>
       <use xlink:href="#DejaVuSans-74" x="143.261719"/>
       <use xlink:href="#DejaVuSans-72" x="182.470703"/>
       <use xlink:href="#DejaVuSans-75" x="223.583984"/>
       <use xlink:href="#DejaVuSans-6d" x="286.962891"/>
       <use xlink:href="#DejaVuSans-65" x="384.375"/>
       <use xlink:href="#DejaVuSans-6e" x="445.898438"/>
       <use xlink:href="#DejaVuSans-74" x="509.277344"/>
       <use xlink:href="#DejaVuSans-2d" x="548.486328"/>
       <use xlink:href="#DejaVuSans-31" x="584.570312"/>
      </g>
     </g>
    </g>
    <g id="xtick_2">
     <g id="line2d_2">
      <g>
       <use xlink:href="#mfb115e96a8" x="288.038829" y="345.6" style="stroke: #000000; stroke-width: 0.8"/>
      </g>
     </g>
     <g id="text_2">
      <!-- instrument-2 -->
      <g transform="translate(255.631016 360.198437)scale(0.1 -0.1)">
       <defs>
        <path id="DejaVuSans-32" d="M 1228 531 
L 3431 531 
L 3431 0 
L 469 0 
L 469 531 
Q 828 903 1448 1529 
Q 2069 2156 2228 2338 
Q 2531 2678 2651 2914 
Q 2772 3150 2772 3378 
Q 2772 3750 2511 3984 
Q 2250 4219 1831 4219 
Q 1534 4219 1204 4116 
Q 875 4013 500 3803 
L 500 4441 
Q 881 4594 1212 4672 
Q 1544 4750 1819 4750 
Q 2544 4750 2975 4387 
Q 3406 4025 3406 3419 
Q 3406 3131 3298 2873 
Q 3191 2616 2906 2266 
Q 2828 2175 2409 1742 
Q 1991 1309 1228 531 
z
" transform="scale(0.015625)"/>
       </defs>
       <use xlink:href="#DejaVuSans-69"/>
       <use xlink:href="#DejaVuSans-6e" x="27.783203"/>
       <use xlink:href="#DejaVuSans-73" x="91.162109"/>
       <use xlink:href="#DejaVuSans-74" x="143.261719"/>
       <use xlink:href="#DejaVuSans-72" x="182.470703"/>
       <use xlink:href="#DejaVuSans-75" x="223.583984"/>
       <use xlink:href="#DejaVuSans-6d" x="286.962891"/>
       <use xlink:href="#DejaVuSans-65" x="384.375"/>
       <use xlink:href="#DejaVuSans-6e" x="445.898438"/>
       <use xlink:href="#DejaVuSans-74" x="509.277344"/>
       <use xlink:href="#DejaVuSans-2d" x="548.486328"/>
       <use xlink:href="#DejaVuSans-32" x="584.570312"/>
      </g>
     </g>
    </g>
    <g id="xtick_3">
     <g id="line2d_3">
      <g>
       <use xlink:href="#mfb115e96a8" x="391.212943" y="345.6" style="stroke: #000000; stroke-width: 0.8"/>
      </g>
     </g>
     <g id="text_3">
      <!-- instrument-3 -->
      <g transform="translate(358.80513 360.198437)scale(0.1 -0.1)">
       <defs>
        <path id="DejaVuSans-33" d="M 2597 2516 
Q 3050 2419 3304 2112 
Q 3559 1806 3559 1356 
Q 3559 666 3084 287 
Q 2609 -91 1734 -91 
Q 1441 -91 1130 -33 
Q 819 25 488 141 
L 488 750 
Q 750 597 1062 519 
Q 1375 441 1716 441 
Q 2309 441 2620 675 
Q 2931 909 2931 1356 
Q 2931 1769 2642 2001 
Q 2353 2234 1838 2234 
L 1294 2234 
L 1294 2753 
L 1863 2753 
Q 2328 2753 2575 2939 
Q 2822 3125 2822 3475 
Q 2822 3834 2567 4026 
Q 2313 4219 1838 4219 
Q 1578 4219 1281 4162 
Q 984 4106 628 3988 
L 628 4550 
Q 988 4650 1302 4700 
Q 1616 4750 1894 4750 
Q 2613 4750 3031 4423 
Q 3450 4097 3450 3541 
Q 3450 3153 3228 2886 
Q 3006 2619 2597 2516 
z
" transform="scale(0.015625)"/>
       </defs>
       <use xlink:href="#DejaVuSans-69"/>
       <use xlink:href="#DejaVuSans-6e" x="27.783203"/>
       <use xlink:href="#DejaVuSans-73" x="91.162109"/>
       <use xlink:href="#DejaVuSans-74" x="143.261719"/>
       <use xlink:href="#DejaVuSans-72" x="182.470703"/>
       <use xlink:href="#DejaVuSans-75" x="223.583984"/>
       <use xlink:href="#DejaVuSans-6d" x="286.962891"/>
       <use xlink:href="#DejaVuSans-65" x="384.375"/>
       <use xlink:href="#DejaVuSans-6e" x="445.898438"/>
       <use xlink:href="#DejaVuSans-74" x="509.277344"/>
       <use xlink:href="#DejaVuSans-2d" x="548.486328"/>
       <use xlink:href="#DejaVuSans-33" x="584.570312"/>
      </g>
     </g>
    </g>
    <g id="xtick_4">
     <g id="line2d_4">
      <g>
       <use xlink:href="#mfb115e96a8" x="494.387057" y="345.6" style="stroke: #000000; stroke-width: 0.8"/>
      </g>
     </g>
     <g id="text_4">
      <!-- instrument-4 -->
      <g transform="translate(461.979245 360.198437)scale(0.1 -0.1)">
       <defs>
        <path id="DejaVuSans-34" d="M 2419 4116 
L 825 1625 
L 2419 1625 
L 2419 4116 
z
M 2253 4666 
L 3047 4666 
L 3047 1625 
L 3713 1625 
L 3713 1100 
L 3047 1100 
L 3047 0 
L 2419 0 
L 2419 1100 
L 313 1100 
L 313 1709 
L 2253 4666 
z
" transform="scale(0.015625)"/>
       </defs>
       <use xlink:href="#DejaVuSans-69"/>
       <use xlink:href="#DejaVuSans-6e" x="27.783203"/>
       <use xlink:href="#DejaVuSans-73" x="91.162109"/>
       <use xlink:href="#DejaVuSans-74" x="143.261719"/>
       <use xlink:href="#DejaVuSans-72" x="182.470703"/>
       <use xlink:href="#DejaVuSans-75" x="223.583984"/>
       <use xlink:href="#DejaVuSans-6d" x="286.962891"/>
       <use xlink:href="#DejaVuSans-65" x="384.375"/>
       <use xlink:href="#DejaVuSans-6e" x="445.898438"/>
       <use xlink:href="#DejaVuSans-74" x="509.277344"/>
       <use xlink:href="#DejaVuSans-2d" x="548.486328"/>
       <use xlink:href="#DejaVuSans-34" x="584.570312"/>
      </g>
     </g>
    </g>
    <g id="xtick_5">
     <g id="line2d_5">
      <g>
       <use xlink:href="#mfb115e96a8" x="597.561171" y="345.6" style="stroke: #000000; stroke-width: 0.8"/>
      </g>
     </g>
     <g id="text_5">
      <!-- instrument-5 -->
      <g transform="translate(565.153359 360.198437)scale(0.1 -0.1)">
       <defs>
        <path id="DejaVuSans-35" d="M 691 4666 
L 3169 4666 
L 3169 4134 
L 1269 4134 
L 1269 2991 
Q 1406 3038 1543 3061 
Q 1681 3084 1819 3084 
Q 2600 3084 3056 2656 
Q 3513 2228 3513 1497 
Q 3513 744 3044 326 
Q 2575 -91 1722 -91 
Q 1428 -91 1123 -41 
Q 819 9 494 109 
L 494 744 
Q 775 591 1075 516 
Q 1375 441 1709 441 
Q 2250 441 2565 725 
Q 2881 1009 2881 1497 
Q 2881 1984 2565 2268 
Q 2250 2553 1709 2553 
Q 1456 2553 1204 2497 
Q 953 2441 691 2322 
L 691 4666 
z
" transform="scale(0.015625)"/>
       </defs>
       <use xlink:href="#DejaVuSans-69"/>
       <use xlink:href="#DejaVuSans-6e" x="27.783203"/>
       <use xlink:href="#DejaVuSans-73" x="91.162109"/>
       <use xlink:href="#DejaVuSans-74" x="143.261719"/>
       <use xlink:href="#DejaVuSans-72" x="182.470703"/>
       <use xlink:href="#DejaVuSans-75" x="223.583984"/>
       <use xlink:href="#DejaVuSans-6d" x="286.962891"/>
       <use xlink:href="#DejaVuSans-65" x="384.375"/>
       <use xlink:href="#DejaVuSans-6e" x="445.898438"/>
       <use xlink:href="#DejaVuSans-74" x="509.277344"/>
       <use xlink:href="#DejaVuSans-2d" x="548.486328"/>
       <use xlink:href="#DejaVuSans-35" x="584.570312"/>
      </g>
     </g>
    </g>
    <g id="xtick_6">
     <g id="line2d_6">
      <g>
       <use xlink:href="#mfb115e96a8" x="700.735285" y="345.6" style="stroke: #000000; stroke-width: 0.8"/>
      </g>
     </g>
     <g id="text_6">
      <!-- instrument-6 -->
      <g transform="translate(668.327473 360.198437)scale(0.1 -0.1)">
       <defs>
        <path id="DejaVuSans-36" d="M 2113 2584 
Q 1688 2584 1439 2293 
Q 1191 2003 1191 1497 
Q 1191 994 1439 701 
Q 1688 409 2113 409 
Q 2538 409 2786 701 
Q 3034 994 3034 1497 
Q 3034 2003 2786 2293 
Q 2538 2584 2113 2584 
z
M 3366 4563 
L 3366 3988 
Q 3128 4100 2886 4159 
Q 2644 4219 2406 4219 
Q 1781 4219 1451 3797 
Q 1122 3375 1075 2522 
Q 1259 2794 1537 2939 
Q 1816 3084 2150 3084 
Q 2853 3084 3261 2657 
Q 3669 2231 3669 1497 
Q 3669 778 3244 343 
Q 2819 -91 2113 -91 
Q 1303 -91 875 529 
Q 447 1150 447 2328 
Q 447 3434 972 4092 
Q 1497 4750 2381 4750 
Q 2619 4750 2861 4703 
Q 3103 4656 3366 4563 
z
" transform="scale(0.015625)"/>
       </defs>
       <use xlink:href="#DejaVuSans-69"/>
       <use xlink:href="#DejaVuSans-6e" x="27.783203"/>
       <use xlink:href="#DejaVuSans-73" x="91.162109"/>
       <use xlink:href="#DejaVuSans-74" x="143.261719"/>
       <use xlink:href="#DejaVuSans-72" x="182.470703"/>
       <use xlink:href="#DejaVuSans-75" x="223.583984"/>
       <use xlink:href="#DejaVuSans-6d" x="286.962891"/>
       <use xlink:href="#DejaVuSans-65" x="384.375"/>
       <use xlink:href="#DejaVuSans-6e" x="445.898438"/>
       <use xlink:href="#DejaVuSans-74" x="509.277344"/>
       <use xlink:href="#DejaVuSans-2d" x="548.486328"/>
       <use xlink:href="#DejaVuSans-36" x="584.570312"/>
      </g>
     </g>
    </g>
    <g id="text_7">
     <!-- Instruments -->
     <g transform="translate(412.686719 373.876562)scale(0.1 -0.1)">
      <defs>
       <path id="DejaVuSans-49" d="M 628 4666 
L 1259 4666 
L 1259 0 
L 628 0 
L 628 4666 
z
" transform="scale(0.015625)"/>
      </defs>
      <use xlink:href="#DejaVuSans-49"/>
      <use xlink:href="#DejaVuSans-6e" x="29.492188"/>
      <use xlink:href="#DejaVuSans-73" x="92.871094"/>
      <use xlink:href="#DejaVuSans-74" x="144.970703"/>
      <use xlink:href="#DejaVuSans-72" x="184.179688"/>
      <use xlink:href="#DejaVuSans-75" x="225.292969"/>
      <use xlink:href="#DejaVuSans-6d" x="288.671875"/>
      <use xlink:href="#DejaVuSans-65" x="386.083984"/>
      <use xlink:href="#DejaVuSans-6e" x="447.607422"/>
      <use xlink:href="#DejaVuSans-74" x="510.986328"/>
      <use xlink:href="#DejaVuSans-73" x="550.195312"/>
     </g>
    </g>
   </g>
   <g id="matplotlib.axis_2">
    <g id="ytick_1">
     <g id="line2d_7">
      <defs>
       <path id="m8967710b1a" d="M 0 0 
L -3.5 0 
" style="stroke: #000000; stroke-width: 0.8"/>
      </defs>
      <g>
       <use xlink:href="#m8967710b1a" x="108" y="345.6" style="stroke: #000000; stroke-width: 0.8"/>
      </g>
     </g>
     <g id="text_8">
      <!-- 0.000 -->
      <g transform="translate(72.371875 349.399219)scale(0.1 -0.1)">
       <defs>
        <path id="DejaVuSans-30" d="M 2034 4250 
Q 1547 4250 1301 3770 
Q 1056 3291 1056 2328 
Q 1056 1369 1301 889 
Q 1547 409 2034 409 
Q 2525 409 2770 889 
Q 3016 1369 3016 2328 
Q 3016 3291 2770 3770 
Q 2525 4250 2034 4250 
z
M 2034 4750 
Q 2819 4750 3233 4129 
Q 3647 3509 3647 2328 
Q 3647 1150 3233 529 
Q 2819 -91 2034 -91 
Q 1250 -91 836 529 
Q 422 1150 422 2328 
Q 422 3509 836 4129 
Q 1250 4750 2034 4750 
z
" transform="scale(0.015625)"/>
        <path id="DejaVuSans-2e" d="M 684 794 
L 1344 794 
L 1344 0 
L 684 0 
L 684 794 
z
" transform="scale(0.015625)"/>
       </defs>
       <use xlink:href="#DejaVuSans-30"/>
       <use xlink:href="#DejaVuSans-2e" x="63.623047"/>
       <use xlink:href="#DejaVuSans-30" x="95.410156"/>
       <use xlink:href="#DejaVuSans-30" x="159.033203"/>
       <use xlink:href="#DejaVuSans-30" x="222.65625"/>
      </g>
     </g>
    </g>
    <g id="ytick_2">
     <g id="line2d_8">
      <g>
       <use xlink:href="#m8967710b1a" x="108" y="289.281524" style="stroke: #000000; stroke-width: 0.8"/>
      </g>
     </g>
     <g id="text_9">
      <!-- 0.001 -->
      <g transform="translate(72.371875 293.080743)scale(0.1 -0.1)">
       <use xlink:href="#DejaVuSans-30"/>
       <use xlink:href="#DejaVuSans-2e" x="63.623047"/>
       <use xlink:href="#DejaVuSans-30" x="95.410156"/>
       <use xlink:href="#DejaVuSans-30" x="159.033203"/>
       <use xlink:href="#DejaVuSans-31" x="222.65625"/>
      </g>
     </g>
    </g>
    <g id="ytick_3">
     <g id="line2d_9">
      <g>
       <use xlink:href="#m8967710b1a" x="108" y="232.963048" style="stroke: #000000; stroke-width: 0.8"/>
      </g>
     </g>
     <g id="text_10">
      <!-- 0.002 -->
      <g transform="translate(72.371875 236.762267)scale(0.1 -0.1)">
       <use xlink:href="#DejaVuSans-30"/>
       <use xlink:href="#DejaVuSans-2e" x="63.623047"/>
       <use xlink:href="#DejaVuSans-30" x="95.410156"/>
       <use xlink:href="#DejaVuSans-30" x="159.033203"/>
       <use xlink:href="#DejaVuSans-32" x="222.65625"/>
      </g>
     </g>
    </g>
    <g id="ytick_4">
     <g id="line2d_10">
      <g>
       <use xlink:href="#m8967710b1a" x="108" y="176.644572" style="stroke: #000000; stroke-width: 0.8"/>
      </g>
     </g>
     <g id="text_11">
      <!-- 0.003 -->
      <g transform="translate(72.371875 180.443791)scale(0.1 -0.1)">
       <use xlink:href="#DejaVuSans-30"/>
       <use xlink:href="#DejaVuSans-2e" x="63.623047"/>
       <use xlink:href="#DejaVuSans-30" x="95.410156"/>
       <use xlink:href="#DejaVuSans-30" x="159.033203"/>
       <use xlink:href="#DejaVuSans-33" x="222.65625"/>
      </g>
     </g>
    </g>
    <g id="ytick_5">
     <g id="line2d_11">
      <g>
       <use xlink:href="#m8967710b1a" x="108" y="120.326096" style="stroke: #000000; stroke-width: 0.8"/>
      </g>
     </g>
     <g id="text_12">
      <!-- 0.004 -->
      <g transform="translate(72.371875 124.125315)scale(0.1 -0.1)">
       <use xlink:href="#DejaVuSans-30"/>
       <use xlink:href="#DejaVuSans-2e" x="63.623047"/>
       <use xlink:href="#DejaVuSans-30" x="95.410156"/>
       <use xlink:href="#DejaVuSans-30" x="159.033203"/>
       <use xlink:href="#DejaVuSans-34" x="222.65625"/>
      </g>
     </g>
    </g>
    <g id="ytick_6">
     <g id="line2d_12">
      <g>
       <use xlink:href="#m8967710b1a" x="108" y="64.007621" style="stroke: #000000; stroke-width: 0.8"/>
      </g>
     </g>
     <g id="text_13">
      <!-- 0.005 -->
      <g transform="translate(72.371875 67.806839)scale(0.1 -0.1)">
       <use xlink:href="#DejaVuSans-30"/>
       <use xlink:href="#DejaVuSans-2e" x="63.623047"/>
       <use xlink:href="#DejaVuSans-30" x="95.410156"/>
       <use xlink:href="#DejaVuSans-30" x="159.033203"/>
       <use xlink:href="#DejaVuSans-35" x="222.65625"/>
      </g>
     </g>
    </g>
    <g id="text_14">
     <!-- Mass fraction of Hcl on instrument -->
     <g transform="translate(66.292187 284.827812)rotate(-90)scale(0.1 -0.1)">
      <defs>
       <path id="DejaVuSans-4d" d="M 628 4666 
L 1569 4666 
L 2759 1491 
L 3956 4666 
L 4897 4666 
L 4897 0 
L 4281 0 
L 4281 4097 
L 3078 897 
L 2444 897 
L 1241 4097 
L 1241 0 
L 628 0 
L 628 4666 
z
" transform="scale(0.015625)"/>
       <path id="DejaVuSans-61" d="M 2194 1759 
Q 1497 1759 1228 1600 
Q 959 1441 959 1056 
Q 959 750 1161 570 
Q 1363 391 1709 391 
Q 2188 391 2477 730 
Q 2766 1069 2766 1631 
L 2766 1759 
L 2194 1759 
z
M 3341 1997 
L 3341 0 
L 2766 0 
L 2766 531 
Q 2569 213 2275 61 
Q 1981 -91 1556 -91 
Q 1019 -91 701 211 
Q 384 513 384 1019 
Q 384 1609 779 1909 
Q 1175 2209 1959 2209 
L 2766 2209 
L 2766 2266 
Q 2766 2663 2505 2880 
Q 2244 3097 1772 3097 
Q 1472 3097 1187 3025 
Q 903 2953 641 2809 
L 641 3341 
Q 956 3463 1253 3523 
Q 1550 3584 1831 3584 
Q 2591 3584 2966 3190 
Q 3341 2797 3341 1997 
z
" transform="scale(0.015625)"/>
       <path id="DejaVuSans-20" transform="scale(0.015625)"/>
       <path id="DejaVuSans-66" d="M 2375 4863 
L 2375 4384 
L 1825 4384 
Q 1516 4384 1395 4259 
Q 1275 4134 1275 3809 
L 1275 3500 
L 2222 3500 
L 2222 3053 
L 1275 3053 
L 1275 0 
L 697 0 
L 697 3053 
L 147 3053 
L 147 3500 
L 697 3500 
L 697 3744 
Q 697 4328 969 4595 
Q 1241 4863 1831 4863 
L 2375 4863 
z
" transform="scale(0.015625)"/>
       <path id="DejaVuSans-63" d="M 3122 3366 
L 3122 2828 
Q 2878 2963 2633 3030 
Q 2388 3097 2138 3097 
Q 1578 3097 1268 2742 
Q 959 2388 959 1747 
Q 959 1106 1268 751 
Q 1578 397 2138 397 
Q 2388 397 2633 464 
Q 2878 531 3122 666 
L 3122 134 
Q 2881 22 2623 -34 
Q 2366 -91 2075 -91 
Q 1284 -91 818 406 
Q 353 903 353 1747 
Q 353 2603 823 3093 
Q 1294 3584 2113 3584 
Q 2378 3584 2631 3529 
Q 2884 3475 3122 3366 
z
" transform="scale(0.015625)"/>
       <path id="DejaVuSans-6f" d="M 1959 3097 
Q 1497 3097 1228 2736 
Q 959 2375 959 1747 
Q 959 1119 1226 758 
Q 1494 397 1959 397 
Q 2419 397 2687 759 
Q 2956 1122 2956 1747 
Q 2956 2369 2687 2733 
Q 2419 3097 1959 3097 
z
M 1959 3584 
Q 2709 3584 3137 3096 
Q 3566 2609 3566 1747 
Q 3566 888 3137 398 
Q 2709 -91 1959 -91 
Q 1206 -91 779 398 
Q 353 888 353 1747 
Q 353 2609 779 3096 
Q 1206 3584 1959 3584 
z
" transform="scale(0.015625)"/>
       <path id="DejaVuSans-48" d="M 628 4666 
L 1259 4666 
L 1259 2753 
L 3553 2753 
L 3553 4666 
L 4184 4666 
L 4184 0 
L 3553 0 
L 3553 2222 
L 1259 2222 
L 1259 0 
L 628 0 
L 628 4666 
z
" transform="scale(0.015625)"/>
       <path id="DejaVuSans-6c" d="M 603 4863 
L 1178 4863 
L 1178 0 
L 603 0 
L 603 4863 
z
" transform="scale(0.015625)"/>
      </defs>
      <use xlink:href="#DejaVuSans-4d"/>
      <use xlink:href="#DejaVuSans-61" x="86.279297"/>
      <use xlink:href="#DejaVuSans-73" x="147.558594"/>
      <use xlink:href="#DejaVuSans-73" x="199.658203"/>
      <use xlink:href="#DejaVuSans-20" x="251.757812"/>
      <use xlink:href="#DejaVuSans-66" x="283.544922"/>
      <use xlink:href="#DejaVuSans-72" x="318.75"/>
      <use xlink:href="#DejaVuSans-61" x="359.863281"/>
      <use xlink:href="#DejaVuSans-63" x="421.142578"/>
      <use xlink:href="#DejaVuSans-74" x="476.123047"/>
      <use xlink:href="#DejaVuSans-69" x="515.332031"/>
      <use xlink:href="#DejaVuSans-6f" x="543.115234"/>
      <use xlink:href="#DejaVuSans-6e" x="604.296875"/>
      <use xlink:href="#DejaVuSans-20" x="667.675781"/>
      <use xlink:href="#DejaVuSans-6f" x="699.462891"/>
      <use xlink:href="#DejaVuSans-66" x="760.644531"/>
      <use xlink:href="#DejaVuSans-20" x="795.849609"/>
      <use xlink:href="#DejaVuSans-48" x="827.636719"/>
      <use xlink:href="#DejaVuSans-63" x="902.832031"/>
      <use xlink:href="#DejaVuSans-6c" x="957.8125"/>
      <use xlink:href="#DejaVuSans-20" x="985.595703"/>
      <use xlink:href="#DejaVuSans-6f" x="1017.382812"/>
      <use xlink:href="#DejaVuSans-6e" x="1078.564453"/>
      <use xlink:href="#DejaVuSans-20" x="1141.943359"/>
      <use xlink:href="#DejaVuSans-69" x="1173.730469"/>
      <use xlink:href="#DejaVuSans-6e" x="1201.513672"/>
      <use xlink:href="#DejaVuSans-73" x="1264.892578"/>
      <use xlink:href="#DejaVuSans-74" x="1316.992188"/>
      <use xlink:href="#DejaVuSans-72" x="1356.201172"/>
      <use xlink:href="#DejaVuSans-75" x="1397.314453"/>
      <use xlink:href="#DejaVuSans-6d" x="1460.693359"/>
      <use xlink:href="#DejaVuSans-65" x="1558.105469"/>
      <use xlink:href="#DejaVuSans-6e" x="1619.628906"/>
      <use xlink:href="#DejaVuSans-74" x="1683.007812"/>
     </g>
    </g>
   </g>
   <g id="patch_39">
    <path d="M 108 345.6 
L 108 51.84 
" style="fill: none; stroke: #000000; stroke-width: 0.8; stroke-linejoin: miter; stroke-linecap: square"/>
   </g>
   <g id="patch_40">
    <path d="M 777.6 345.6 
L 777.6 51.84 
" style="fill: none; stroke: #000000; stroke-width: 0.8; stroke-linejoin: miter; stroke-linecap: square"/>
   </g>
   <g id="patch_41">
    <path d="M 108 345.6 
L 777.6 345.6 
" style="fill: none; stroke: #000000; stroke-width: 0.8; stroke-linejoin: miter; stroke-linecap: square"/>
   </g>
   <g id="patch_42">
    <path d="M 108 51.84 
L 777.6 51.84 
" style="fill: none; stroke: #000000; stroke-width: 0.8; stroke-linejoin: miter; stroke-linecap: square"/>
   </g>
   <g id="legend_1">
    <g id="patch_43">
     <path d="M 663.31875 147.90875 
L 770.6 147.90875 
Q 772.6 147.90875 772.6 145.90875 
L 772.6 58.84 
Q 772.6 56.84 770.6 56.84 
L 663.31875 56.84 
Q 661.31875 56.84 661.31875 58.84 
L 661.31875 145.90875 
Q 661.31875 147.90875 663.31875 147.90875 
z
" style="fill: #ffffff; opacity: 0.8; stroke: #cccccc; stroke-linejoin: miter"/>
    </g>
    <g id="patch_44">
     <path d="M 665.31875 68.438437 
L 685.31875 68.438437 
L 685.31875 61.438437 
L 665.31875 61.438437 
z
" style="fill: #1f77b4"/>
    </g>
    <g id="text_15">
     <!-- 20% horizontal -->
     <g transform="translate(693.31875 68.438437)scale(0.1 -0.1)">
      <defs>
       <path id="DejaVuSans-25" d="M 4653 2053 
Q 4381 2053 4226 1822 
Q 4072 1591 4072 1178 
Q 4072 772 4226 539 
Q 4381 306 4653 306 
Q 4919 306 5073 539 
Q 5228 772 5228 1178 
Q 5228 1588 5073 1820 
Q 4919 2053 4653 2053 
z
M 4653 2450 
Q 5147 2450 5437 2106 
Q 5728 1763 5728 1178 
Q 5728 594 5436 251 
Q 5144 -91 4653 -91 
Q 4153 -91 3862 251 
Q 3572 594 3572 1178 
Q 3572 1766 3864 2108 
Q 4156 2450 4653 2450 
z
M 1428 4353 
Q 1159 4353 1004 4120 
Q 850 3888 850 3481 
Q 850 3069 1003 2837 
Q 1156 2606 1428 2606 
Q 1700 2606 1854 2837 
Q 2009 3069 2009 3481 
Q 2009 3884 1853 4118 
Q 1697 4353 1428 4353 
z
M 4250 4750 
L 4750 4750 
L 1831 -91 
L 1331 -91 
L 4250 4750 
z
M 1428 4750 
Q 1922 4750 2215 4408 
Q 2509 4066 2509 3481 
Q 2509 2891 2217 2550 
Q 1925 2209 1428 2209 
Q 931 2209 642 2551 
Q 353 2894 353 3481 
Q 353 4063 643 4406 
Q 934 4750 1428 4750 
z
" transform="scale(0.015625)"/>
       <path id="DejaVuSans-68" d="M 3513 2113 
L 3513 0 
L 2938 0 
L 2938 2094 
Q 2938 2591 2744 2837 
Q 2550 3084 2163 3084 
Q 1697 3084 1428 2787 
Q 1159 2491 1159 1978 
L 1159 0 
L 581 0 
L 581 4863 
L 1159 4863 
L 1159 2956 
Q 1366 3272 1645 3428 
Q 1925 3584 2291 3584 
Q 2894 3584 3203 3211 
Q 3513 2838 3513 2113 
z
" transform="scale(0.015625)"/>
       <path id="DejaVuSans-7a" d="M 353 3500 
L 3084 3500 
L 3084 2975 
L 922 459 
L 3084 459 
L 3084 0 
L 275 0 
L 275 525 
L 2438 3041 
L 353 3041 
L 353 3500 
z
" transform="scale(0.015625)"/>
      </defs>
      <use xlink:href="#DejaVuSans-32"/>
      <use xlink:href="#DejaVuSans-30" x="63.623047"/>
      <use xlink:href="#DejaVuSans-25" x="127.246094"/>
      <use xlink:href="#DejaVuSans-20" x="222.265625"/>
      <use xlink:href="#DejaVuSans-68" x="254.052734"/>
      <use xlink:href="#DejaVuSans-6f" x="317.431641"/>
      <use xlink:href="#DejaVuSans-72" x="378.613281"/>
      <use xlink:href="#DejaVuSans-69" x="419.726562"/>
      <use xlink:href="#DejaVuSans-7a" x="447.509766"/>
      <use xlink:href="#DejaVuSans-6f" x="500"/>
      <use xlink:href="#DejaVuSans-6e" x="561.181641"/>
      <use xlink:href="#DejaVuSans-74" x="624.560547"/>
      <use xlink:href="#DejaVuSans-61" x="663.769531"/>
      <use xlink:href="#DejaVuSans-6c" x="725.048828"/>
     </g>
    </g>
    <g id="patch_45">
     <path d="M 665.31875 83.116562 
L 685.31875 83.116562 
L 685.31875 76.116562 
L 665.31875 76.116562 
z
" style="fill: #ff7f0e"/>
    </g>
    <g id="text_16">
     <!-- 20% lateral -->
     <g transform="translate(693.31875 83.116562)scale(0.1 -0.1)">
      <use xlink:href="#DejaVuSans-32"/>
      <use xlink:href="#DejaVuSans-30" x="63.623047"/>
      <use xlink:href="#DejaVuSans-25" x="127.246094"/>
      <use xlink:href="#DejaVuSans-20" x="222.265625"/>
      <use xlink:href="#DejaVuSans-6c" x="254.052734"/>
      <use xlink:href="#DejaVuSans-61" x="281.835938"/>
      <use xlink:href="#DejaVuSans-74" x="343.115234"/>
      <use xlink:href="#DejaVuSans-65" x="382.324219"/>
      <use xlink:href="#DejaVuSans-72" x="443.847656"/>
      <use xlink:href="#DejaVuSans-61" x="484.960938"/>
      <use xlink:href="#DejaVuSans-6c" x="546.240234"/>
     </g>
    </g>
    <g id="patch_46">
     <path d="M 665.31875 97.794687 
L 685.31875 97.794687 
L 685.31875 90.794687 
L 665.31875 90.794687 
z
" style="fill: #2ca02c"/>
    </g>
    <g id="text_17">
     <!-- 30% horizontal -->
     <g transform="translate(693.31875 97.794687)scale(0.1 -0.1)">
      <use xlink:href="#DejaVuSans-33"/>
      <use xlink:href="#DejaVuSans-30" x="63.623047"/>
      <use xlink:href="#DejaVuSans-25" x="127.246094"/>
      <use xlink:href="#DejaVuSans-20" x="222.265625"/>
      <use xlink:href="#DejaVuSans-68" x="254.052734"/>
      <use xlink:href="#DejaVuSans-6f" x="317.431641"/>
      <use xlink:href="#DejaVuSans-72" x="378.613281"/>
      <use xlink:href="#DejaVuSans-69" x="419.726562"/>
      <use xlink:href="#DejaVuSans-7a" x="447.509766"/>
      <use xlink:href="#DejaVuSans-6f" x="500"/>
      <use xlink:href="#DejaVuSans-6e" x="561.181641"/>
      <use xlink:href="#DejaVuSans-74" x="624.560547"/>
      <use xlink:href="#DejaVuSans-61" x="663.769531"/>
      <use xlink:href="#DejaVuSans-6c" x="725.048828"/>
     </g>
    </g>
    <g id="patch_47">
     <path d="M 665.31875 112.472812 
L 685.31875 112.472812 
L 685.31875 105.472812 
L 665.31875 105.472812 
z
" style="fill: #d62728"/>
    </g>
    <g id="text_18">
     <!-- 30% lateral -->
     <g transform="translate(693.31875 112.472812)scale(0.1 -0.1)">
      <use xlink:href="#DejaVuSans-33"/>
      <use xlink:href="#DejaVuSans-30" x="63.623047"/>
      <use xlink:href="#DejaVuSans-25" x="127.246094"/>
      <use xlink:href="#DejaVuSans-20" x="222.265625"/>
      <use xlink:href="#DejaVuSans-6c" x="254.052734"/>
      <use xlink:href="#DejaVuSans-61" x="281.835938"/>
      <use xlink:href="#DejaVuSans-74" x="343.115234"/>
      <use xlink:href="#DejaVuSans-65" x="382.324219"/>
      <use xlink:href="#DejaVuSans-72" x="443.847656"/>
      <use xlink:href="#DejaVuSans-61" x="484.960938"/>
      <use xlink:href="#DejaVuSans-6c" x="546.240234"/>
     </g>
    </g>
    <g id="patch_48">
     <path d="M 665.31875 127.150937 
L 685.31875 127.150937 
L 685.31875 120.150937 
L 665.31875 120.150937 
z
" style="fill: #9467bd"/>
    </g>
    <g id="text_19">
     <!-- 40% horizontal -->
     <g transform="translate(693.31875 127.150937)scale(0.1 -0.1)">
      <use xlink:href="#DejaVuSans-34"/>
      <use xlink:href="#DejaVuSans-30" x="63.623047"/>
      <use xlink:href="#DejaVuSans-25" x="127.246094"/>
      <use xlink:href="#DejaVuSans-20" x="222.265625"/>
      <use xlink:href="#DejaVuSans-68" x="254.052734"/>
      <use xlink:href="#DejaVuSans-6f" x="317.431641"/>
      <use xlink:href="#DejaVuSans-72" x="378.613281"/>
      <use xlink:href="#DejaVuSans-69" x="419.726562"/>
      <use xlink:href="#DejaVuSans-7a" x="447.509766"/>
      <use xlink:href="#DejaVuSans-6f" x="500"/>
      <use xlink:href="#DejaVuSans-6e" x="561.181641"/>
      <use xlink:href="#DejaVuSans-74" x="624.560547"/>
      <use xlink:href="#DejaVuSans-61" x="663.769531"/>
      <use xlink:href="#DejaVuSans-6c" x="725.048828"/>
     </g>
    </g>
    <g id="patch_49">
     <path d="M 665.31875 141.829062 
L 685.31875 141.829062 
L 685.31875 134.829062 
L 665.31875 134.829062 
z
" style="fill: #8c564b"/>
    </g>
    <g id="text_20">
     <!-- 40% lateral -->
     <g transform="translate(693.31875 141.829062)scale(0.1 -0.1)">
      <use xlink:href="#DejaVuSans-34"/>
      <use xlink:href="#DejaVuSans-30" x="63.623047"/>
      <use xlink:href="#DejaVuSans-25" x="127.246094"/>
      <use xlink:href="#DejaVuSans-20" x="222.265625"/>
      <use xlink:href="#DejaVuSans-6c" x="254.052734"/>
      <use xlink:href="#DejaVuSans-61" x="281.835938"/>
      <use xlink:href="#DejaVuSans-74" x="343.115234"/>
      <use xlink:href="#DejaVuSans-65" x="382.324219"/>
      <use xlink:href="#DejaVuSans-72" x="443.847656"/>
      <use xlink:href="#DejaVuSans-61" x="484.960938"/>
      <use xlink:href="#DejaVuSans-6c" x="546.240234"/>
     </g>
    </g>
   </g>
  </g>
 </g>
 <defs>
  <clipPath id="p90a91d0af3">
   <rect x="108" y="51.84" width="669.6" height="293.76"/>
  </clipPath>
 </defs>
</svg>
